<mxfile host="app.diagrams.net" modified="2024-04-20T18:18:35.578Z" agent="Mozilla/5.0 (Windows NT 10.0; Win64; x64) AppleWebKit/537.36 (KHTML, like Gecko) Chrome/124.0.0.0 Safari/537.36" etag="tPYZQnkdZzDAiFMByael" version="24.2.7" type="device">
  <diagram name="PÃ¡gina-1" id="JPNXvwoEI1qBw5MpoDDN">
    <mxGraphModel dx="733" dy="591" grid="1" gridSize="10" guides="1" tooltips="1" connect="1" arrows="1" fold="1" page="1" pageScale="1" pageWidth="1169" pageHeight="827" math="0" shadow="0">
      <root>
        <mxCell id="0" />
        <mxCell id="1" parent="0" />
        <mxCell id="9ycs3MD7gYGY4CSC5391-2" value="Usuarios" style="swimlane;fontStyle=0;childLayout=stackLayout;horizontal=1;startSize=26;fillColor=#d5e8d4;horizontalStack=0;resizeParent=1;resizeParentMax=0;resizeLast=0;collapsible=1;marginBottom=0;whiteSpace=wrap;html=1;rounded=1;labelBackgroundColor=none;strokeColor=#82b366;swimlaneFillColor=none;" parent="1" vertex="1">
          <mxGeometry x="464" y="34" width="180" height="212" as="geometry" />
        </mxCell>
        <mxCell id="9ycs3MD7gYGY4CSC5391-3" value="id_Usuario" style="text;strokeColor=none;fillColor=none;align=left;verticalAlign=top;spacingLeft=4;spacingRight=4;overflow=hidden;rotatable=0;points=[[0,0.5],[1,0.5]];portConstraint=eastwest;whiteSpace=wrap;html=1;rounded=1;labelBackgroundColor=none;fontColor=#5C5C5C;fontStyle=5" parent="9ycs3MD7gYGY4CSC5391-2" vertex="1">
          <mxGeometry y="26" width="180" height="26" as="geometry" />
        </mxCell>
        <mxCell id="9ycs3MD7gYGY4CSC5391-5" value="Nombre" style="text;strokeColor=none;fillColor=none;align=left;verticalAlign=top;spacingLeft=4;spacingRight=4;overflow=hidden;rotatable=0;points=[[0,0.5],[1,0.5]];portConstraint=eastwest;whiteSpace=wrap;html=1;rounded=1;labelBackgroundColor=none;fontColor=#5C5C5C;" parent="9ycs3MD7gYGY4CSC5391-2" vertex="1">
          <mxGeometry y="52" width="180" height="26" as="geometry" />
        </mxCell>
        <mxCell id="_UAvvu1hv1Xpaj-Y4Vh0-1" value="ApellidoP" style="text;strokeColor=none;fillColor=none;align=left;verticalAlign=top;spacingLeft=4;spacingRight=4;overflow=hidden;rotatable=0;points=[[0,0.5],[1,0.5]];portConstraint=eastwest;whiteSpace=wrap;html=1;rounded=1;labelBackgroundColor=none;fontColor=#5C5C5C;" parent="9ycs3MD7gYGY4CSC5391-2" vertex="1">
          <mxGeometry y="78" width="180" height="26" as="geometry" />
        </mxCell>
        <mxCell id="_UAvvu1hv1Xpaj-Y4Vh0-2" value="ApellidoM" style="text;strokeColor=none;fillColor=none;align=left;verticalAlign=top;spacingLeft=4;spacingRight=4;overflow=hidden;rotatable=0;points=[[0,0.5],[1,0.5]];portConstraint=eastwest;whiteSpace=wrap;html=1;rounded=1;labelBackgroundColor=none;fontColor=#5C5C5C;" parent="9ycs3MD7gYGY4CSC5391-2" vertex="1">
          <mxGeometry y="104" width="180" height="26" as="geometry" />
        </mxCell>
        <mxCell id="_UAvvu1hv1Xpaj-Y4Vh0-3" value="Correo" style="text;strokeColor=none;fillColor=none;align=left;verticalAlign=top;spacingLeft=4;spacingRight=4;overflow=hidden;rotatable=0;points=[[0,0.5],[1,0.5]];portConstraint=eastwest;whiteSpace=wrap;html=1;rounded=1;labelBackgroundColor=none;fontColor=#5C5C5C;" parent="9ycs3MD7gYGY4CSC5391-2" vertex="1">
          <mxGeometry y="130" width="180" height="26" as="geometry" />
        </mxCell>
        <mxCell id="_UAvvu1hv1Xpaj-Y4Vh0-4" value="Pass" style="text;strokeColor=none;fillColor=none;align=left;verticalAlign=top;spacingLeft=4;spacingRight=4;overflow=hidden;rotatable=0;points=[[0,0.5],[1,0.5]];portConstraint=eastwest;whiteSpace=wrap;html=1;rounded=1;labelBackgroundColor=none;fontColor=#5C5C5C;" parent="9ycs3MD7gYGY4CSC5391-2" vertex="1">
          <mxGeometry y="156" width="180" height="26" as="geometry" />
        </mxCell>
        <mxCell id="_UAvvu1hv1Xpaj-Y4Vh0-23" value="TDC" style="text;strokeColor=none;fillColor=none;align=left;verticalAlign=middle;spacingLeft=4;spacingRight=4;overflow=hidden;points=[[0,0.5],[1,0.5]];portConstraint=eastwest;rotatable=0;whiteSpace=wrap;html=1;labelBackgroundColor=none;fontColor=#5C5C5C;rounded=1;" parent="9ycs3MD7gYGY4CSC5391-2" vertex="1">
          <mxGeometry y="182" width="180" height="30" as="geometry" />
        </mxCell>
        <mxCell id="_UAvvu1hv1Xpaj-Y4Vh0-5" value="Vuelos" style="swimlane;fontStyle=0;childLayout=stackLayout;horizontal=1;startSize=30;horizontalStack=0;resizeParent=1;resizeParentMax=0;resizeLast=0;collapsible=1;marginBottom=0;whiteSpace=wrap;html=1;labelBackgroundColor=none;fillColor=#d5e8d4;strokeColor=#82b366;rounded=1;swimlaneFillColor=none;" parent="1" vertex="1">
          <mxGeometry x="484" y="420" width="140" height="180" as="geometry" />
        </mxCell>
        <mxCell id="_UAvvu1hv1Xpaj-Y4Vh0-32" value="&lt;b&gt;&lt;u&gt;Id_Vuelo&lt;/u&gt;&lt;/b&gt;" style="text;strokeColor=none;fillColor=none;align=left;verticalAlign=middle;spacingLeft=4;spacingRight=4;overflow=hidden;points=[[0,0.5],[1,0.5]];portConstraint=eastwest;rotatable=0;whiteSpace=wrap;html=1;labelBackgroundColor=none;fontColor=#5C5C5C;rounded=1;" parent="_UAvvu1hv1Xpaj-Y4Vh0-5" vertex="1">
          <mxGeometry y="30" width="140" height="30" as="geometry" />
        </mxCell>
        <mxCell id="_UAvvu1hv1Xpaj-Y4Vh0-152" value="Id_Horario" style="text;strokeColor=none;fillColor=none;align=left;verticalAlign=middle;spacingLeft=4;spacingRight=4;overflow=hidden;points=[[0,0.5],[1,0.5]];portConstraint=eastwest;rotatable=0;whiteSpace=wrap;html=1;labelBackgroundColor=none;fontColor=#5C5C5C;rounded=1;fontStyle=4" parent="_UAvvu1hv1Xpaj-Y4Vh0-5" vertex="1">
          <mxGeometry y="60" width="140" height="30" as="geometry" />
        </mxCell>
        <mxCell id="FyNyGWUAdpJS-fKnMYKB-4" value="Costo" style="text;strokeColor=none;fillColor=none;align=left;verticalAlign=middle;spacingLeft=4;spacingRight=4;overflow=hidden;points=[[0,0.5],[1,0.5]];portConstraint=eastwest;rotatable=0;whiteSpace=wrap;html=1;labelBackgroundColor=none;fontColor=#5C5C5C;rounded=1;" parent="_UAvvu1hv1Xpaj-Y4Vh0-5" vertex="1">
          <mxGeometry y="90" width="140" height="30" as="geometry" />
        </mxCell>
        <mxCell id="_UAvvu1hv1Xpaj-Y4Vh0-27" value="Aerolinea" style="text;strokeColor=none;fillColor=none;align=left;verticalAlign=middle;spacingLeft=4;spacingRight=4;overflow=hidden;points=[[0,0.5],[1,0.5]];portConstraint=eastwest;rotatable=0;whiteSpace=wrap;html=1;labelBackgroundColor=none;fontColor=#5C5C5C;rounded=1;" parent="_UAvvu1hv1Xpaj-Y4Vh0-5" vertex="1">
          <mxGeometry y="120" width="140" height="30" as="geometry" />
        </mxCell>
        <mxCell id="_UAvvu1hv1Xpaj-Y4Vh0-33" value="TipoVuelo(Directo/escalas)" style="text;strokeColor=none;fillColor=none;align=left;verticalAlign=middle;spacingLeft=4;spacingRight=4;overflow=hidden;points=[[0,0.5],[1,0.5]];portConstraint=eastwest;rotatable=0;whiteSpace=wrap;html=1;labelBackgroundColor=none;fontColor=#5C5C5C;rounded=1;" parent="_UAvvu1hv1Xpaj-Y4Vh0-5" vertex="1">
          <mxGeometry y="150" width="140" height="30" as="geometry" />
        </mxCell>
        <mxCell id="_UAvvu1hv1Xpaj-Y4Vh0-9" value="Detalle_CiudVuelos" style="swimlane;fontStyle=0;childLayout=stackLayout;horizontal=1;startSize=30;horizontalStack=0;resizeParent=1;resizeParentMax=0;resizeLast=0;collapsible=1;marginBottom=0;whiteSpace=wrap;html=1;labelBackgroundColor=none;fillColor=#d5e8d4;strokeColor=#82b366;rounded=1;swimlaneFillColor=none;" parent="1" vertex="1">
          <mxGeometry x="280" y="575" width="140" height="120" as="geometry" />
        </mxCell>
        <mxCell id="_UAvvu1hv1Xpaj-Y4Vh0-10" value="Id_&lt;span style=&quot;text-align: center;&quot;&gt;Detalle_CiudVuel&lt;/span&gt;" style="text;strokeColor=none;fillColor=none;align=left;verticalAlign=middle;spacingLeft=4;spacingRight=4;overflow=hidden;points=[[0,0.5],[1,0.5]];portConstraint=eastwest;rotatable=0;whiteSpace=wrap;html=1;labelBackgroundColor=none;fontColor=#5C5C5C;rounded=1;fontStyle=5" parent="_UAvvu1hv1Xpaj-Y4Vh0-9" vertex="1">
          <mxGeometry y="30" width="140" height="30" as="geometry" />
        </mxCell>
        <mxCell id="_UAvvu1hv1Xpaj-Y4Vh0-11" value="Id_Ciudad" style="text;strokeColor=none;fillColor=none;align=left;verticalAlign=middle;spacingLeft=4;spacingRight=4;overflow=hidden;points=[[0,0.5],[1,0.5]];portConstraint=eastwest;rotatable=0;whiteSpace=wrap;html=1;labelBackgroundColor=none;fontColor=#5C5C5C;rounded=1;fontStyle=4" parent="_UAvvu1hv1Xpaj-Y4Vh0-9" vertex="1">
          <mxGeometry y="60" width="140" height="30" as="geometry" />
        </mxCell>
        <mxCell id="_UAvvu1hv1Xpaj-Y4Vh0-12" value="Id_Vuelo" style="text;strokeColor=none;fillColor=none;align=left;verticalAlign=middle;spacingLeft=4;spacingRight=4;overflow=hidden;points=[[0,0.5],[1,0.5]];portConstraint=eastwest;rotatable=0;whiteSpace=wrap;html=1;labelBackgroundColor=none;fontColor=#5C5C5C;rounded=1;fontStyle=4" parent="_UAvvu1hv1Xpaj-Y4Vh0-9" vertex="1">
          <mxGeometry y="90" width="140" height="30" as="geometry" />
        </mxCell>
        <mxCell id="_UAvvu1hv1Xpaj-Y4Vh0-17" value="Horarios" style="swimlane;fontStyle=0;childLayout=stackLayout;horizontal=1;startSize=30;horizontalStack=0;resizeParent=1;resizeParentMax=0;resizeLast=0;collapsible=1;marginBottom=0;whiteSpace=wrap;html=1;labelBackgroundColor=none;fillColor=#d5e8d4;strokeColor=#82b366;rounded=1;swimlaneFillColor=none;" parent="1" vertex="1">
          <mxGeometry x="700" y="610" width="140" height="150" as="geometry" />
        </mxCell>
        <mxCell id="_UAvvu1hv1Xpaj-Y4Vh0-151" value="Id_Horario" style="text;strokeColor=none;fillColor=none;align=left;verticalAlign=middle;spacingLeft=4;spacingRight=4;overflow=hidden;points=[[0,0.5],[1,0.5]];portConstraint=eastwest;rotatable=0;whiteSpace=wrap;html=1;labelBackgroundColor=none;fontColor=#5C5C5C;rounded=1;fontStyle=5" parent="_UAvvu1hv1Xpaj-Y4Vh0-17" vertex="1">
          <mxGeometry y="30" width="140" height="30" as="geometry" />
        </mxCell>
        <mxCell id="_UAvvu1hv1Xpaj-Y4Vh0-18" value="HoraPartida" style="text;strokeColor=none;fillColor=none;align=left;verticalAlign=middle;spacingLeft=4;spacingRight=4;overflow=hidden;points=[[0,0.5],[1,0.5]];portConstraint=eastwest;rotatable=0;whiteSpace=wrap;html=1;labelBackgroundColor=none;fontColor=#5C5C5C;rounded=1;" parent="_UAvvu1hv1Xpaj-Y4Vh0-17" vertex="1">
          <mxGeometry y="60" width="140" height="30" as="geometry" />
        </mxCell>
        <mxCell id="_UAvvu1hv1Xpaj-Y4Vh0-19" value="HoraLlegada" style="text;strokeColor=none;fillColor=none;align=left;verticalAlign=middle;spacingLeft=4;spacingRight=4;overflow=hidden;points=[[0,0.5],[1,0.5]];portConstraint=eastwest;rotatable=0;whiteSpace=wrap;html=1;labelBackgroundColor=none;fontColor=#5C5C5C;rounded=1;" parent="_UAvvu1hv1Xpaj-Y4Vh0-17" vertex="1">
          <mxGeometry y="90" width="140" height="30" as="geometry" />
        </mxCell>
        <mxCell id="_UAvvu1hv1Xpaj-Y4Vh0-20" value="Fecha" style="text;strokeColor=none;fillColor=none;align=left;verticalAlign=middle;spacingLeft=4;spacingRight=4;overflow=hidden;points=[[0,0.5],[1,0.5]];portConstraint=eastwest;rotatable=0;whiteSpace=wrap;html=1;labelBackgroundColor=none;fontColor=#5C5C5C;rounded=1;" parent="_UAvvu1hv1Xpaj-Y4Vh0-17" vertex="1">
          <mxGeometry y="120" width="140" height="30" as="geometry" />
        </mxCell>
        <mxCell id="_UAvvu1hv1Xpaj-Y4Vh0-25" value="Compras" style="swimlane;fontStyle=0;childLayout=stackLayout;horizontal=1;startSize=30;horizontalStack=0;resizeParent=1;resizeParentMax=0;resizeLast=0;collapsible=1;marginBottom=0;whiteSpace=wrap;html=1;labelBackgroundColor=none;fillColor=#d5e8d4;strokeColor=#82b366;rounded=1;swimlaneFillColor=none;" parent="1" vertex="1">
          <mxGeometry x="240" y="246" width="140" height="116" as="geometry" />
        </mxCell>
        <mxCell id="_UAvvu1hv1Xpaj-Y4Vh0-38" value="Id_Compra" style="text;strokeColor=none;fillColor=none;align=left;verticalAlign=middle;spacingLeft=4;spacingRight=4;overflow=hidden;points=[[0,0.5],[1,0.5]];portConstraint=eastwest;rotatable=0;whiteSpace=wrap;html=1;labelBackgroundColor=none;fontColor=#5C5C5C;rounded=1;fontStyle=5" parent="_UAvvu1hv1Xpaj-Y4Vh0-25" vertex="1">
          <mxGeometry y="30" width="140" height="30" as="geometry" />
        </mxCell>
        <mxCell id="_UAvvu1hv1Xpaj-Y4Vh0-159" value="Id_Vuelo" style="text;strokeColor=none;fillColor=none;align=left;verticalAlign=middle;spacingLeft=4;spacingRight=4;overflow=hidden;points=[[0,0.5],[1,0.5]];portConstraint=eastwest;rotatable=0;whiteSpace=wrap;html=1;labelBackgroundColor=none;fontColor=#5C5C5C;rounded=1;fontStyle=4" parent="_UAvvu1hv1Xpaj-Y4Vh0-25" vertex="1">
          <mxGeometry y="60" width="140" height="30" as="geometry" />
        </mxCell>
        <mxCell id="_UAvvu1hv1Xpaj-Y4Vh0-158" value="id_Usuario" style="text;strokeColor=none;fillColor=none;align=left;verticalAlign=top;spacingLeft=4;spacingRight=4;overflow=hidden;rotatable=0;points=[[0,0.5],[1,0.5]];portConstraint=eastwest;whiteSpace=wrap;html=1;rounded=1;labelBackgroundColor=none;fontColor=#5C5C5C;fontStyle=4" parent="_UAvvu1hv1Xpaj-Y4Vh0-25" vertex="1">
          <mxGeometry y="90" width="140" height="26" as="geometry" />
        </mxCell>
        <mxCell id="_UAvvu1hv1Xpaj-Y4Vh0-43" value="Aviones" style="swimlane;fontStyle=0;childLayout=stackLayout;horizontal=1;startSize=30;horizontalStack=0;resizeParent=1;resizeParentMax=0;resizeLast=0;collapsible=1;marginBottom=0;whiteSpace=wrap;html=1;labelBackgroundColor=none;fillColor=#d5e8d4;strokeColor=#82b366;rounded=1;swimlaneFillColor=none;" parent="1" vertex="1">
          <mxGeometry x="910" y="340" width="140" height="90" as="geometry" />
        </mxCell>
        <mxCell id="_UAvvu1hv1Xpaj-Y4Vh0-34" value="Id_Avion" style="text;strokeColor=none;fillColor=none;align=left;verticalAlign=middle;spacingLeft=4;spacingRight=4;overflow=hidden;points=[[0,0.5],[1,0.5]];portConstraint=eastwest;rotatable=0;whiteSpace=wrap;html=1;labelBackgroundColor=none;fontColor=#5C5C5C;rounded=1;fontStyle=5" parent="_UAvvu1hv1Xpaj-Y4Vh0-43" vertex="1">
          <mxGeometry y="30" width="140" height="30" as="geometry" />
        </mxCell>
        <mxCell id="_UAvvu1hv1Xpaj-Y4Vh0-161" value="Mod_Avion" style="text;strokeColor=none;fillColor=none;align=left;verticalAlign=middle;spacingLeft=4;spacingRight=4;overflow=hidden;points=[[0,0.5],[1,0.5]];portConstraint=eastwest;rotatable=0;whiteSpace=wrap;html=1;labelBackgroundColor=none;fontColor=#5C5C5C;rounded=1;" parent="_UAvvu1hv1Xpaj-Y4Vh0-43" vertex="1">
          <mxGeometry y="60" width="140" height="30" as="geometry" />
        </mxCell>
        <mxCell id="_UAvvu1hv1Xpaj-Y4Vh0-147" value="CategoriasAsientos" style="swimlane;fontStyle=0;childLayout=stackLayout;horizontal=1;startSize=30;horizontalStack=0;resizeParent=1;resizeParentMax=0;resizeLast=0;collapsible=1;marginBottom=0;whiteSpace=wrap;html=1;labelBackgroundColor=none;fillColor=#d5e8d4;strokeColor=#82b366;rounded=1;swimlaneFillColor=none;" parent="1" vertex="1">
          <mxGeometry x="700" y="340" width="140" height="210" as="geometry" />
        </mxCell>
        <mxCell id="_UAvvu1hv1Xpaj-Y4Vh0-36" value="Id_CategoriaAsientos" style="text;strokeColor=none;fillColor=none;align=left;verticalAlign=middle;spacingLeft=4;spacingRight=4;overflow=hidden;points=[[0,0.5],[1,0.5]];portConstraint=eastwest;rotatable=0;whiteSpace=wrap;html=1;labelBackgroundColor=none;fontColor=#5C5C5C;rounded=1;fontStyle=5" parent="_UAvvu1hv1Xpaj-Y4Vh0-147" vertex="1">
          <mxGeometry y="30" width="140" height="30" as="geometry" />
        </mxCell>
        <mxCell id="_UAvvu1hv1Xpaj-Y4Vh0-160" value="Id_AviÃ³n" style="text;strokeColor=none;fillColor=none;align=left;verticalAlign=middle;spacingLeft=4;spacingRight=4;overflow=hidden;points=[[0,0.5],[1,0.5]];portConstraint=eastwest;rotatable=0;whiteSpace=wrap;html=1;labelBackgroundColor=none;fontColor=#5C5C5C;rounded=1;fontStyle=4" parent="_UAvvu1hv1Xpaj-Y4Vh0-147" vertex="1">
          <mxGeometry y="60" width="140" height="30" as="geometry" />
        </mxCell>
        <mxCell id="FyNyGWUAdpJS-fKnMYKB-6" value="&lt;span&gt;&lt;u&gt;Id_Vuelo&lt;/u&gt;&lt;/span&gt;" style="text;strokeColor=none;fillColor=none;align=left;verticalAlign=middle;spacingLeft=4;spacingRight=4;overflow=hidden;points=[[0,0.5],[1,0.5]];portConstraint=eastwest;rotatable=0;whiteSpace=wrap;html=1;labelBackgroundColor=none;fontColor=#5C5C5C;rounded=1;fontStyle=0" parent="_UAvvu1hv1Xpaj-Y4Vh0-147" vertex="1">
          <mxGeometry y="90" width="140" height="30" as="geometry" />
        </mxCell>
        <mxCell id="_UAvvu1hv1Xpaj-Y4Vh0-148" value="CategorÃ­a" style="text;strokeColor=none;fillColor=none;align=left;verticalAlign=middle;spacingLeft=4;spacingRight=4;overflow=hidden;points=[[0,0.5],[1,0.5]];portConstraint=eastwest;rotatable=0;whiteSpace=wrap;html=1;labelBackgroundColor=none;fontColor=#5C5C5C;rounded=1;" parent="_UAvvu1hv1Xpaj-Y4Vh0-147" vertex="1">
          <mxGeometry y="120" width="140" height="30" as="geometry" />
        </mxCell>
        <mxCell id="_UAvvu1hv1Xpaj-Y4Vh0-6" value="CostoAd" style="text;strokeColor=none;fillColor=none;align=left;verticalAlign=middle;spacingLeft=4;spacingRight=4;overflow=hidden;points=[[0,0.5],[1,0.5]];portConstraint=eastwest;rotatable=0;whiteSpace=wrap;html=1;labelBackgroundColor=none;fontColor=#5C5C5C;rounded=1;" parent="_UAvvu1hv1Xpaj-Y4Vh0-147" vertex="1">
          <mxGeometry y="150" width="140" height="30" as="geometry" />
        </mxCell>
        <mxCell id="_UAvvu1hv1Xpaj-Y4Vh0-149" value="AsientosDisponibles" style="text;strokeColor=none;fillColor=none;align=left;verticalAlign=middle;spacingLeft=4;spacingRight=4;overflow=hidden;points=[[0,0.5],[1,0.5]];portConstraint=eastwest;rotatable=0;whiteSpace=wrap;html=1;labelBackgroundColor=none;fontColor=#5C5C5C;rounded=1;" parent="_UAvvu1hv1Xpaj-Y4Vh0-147" vertex="1">
          <mxGeometry y="180" width="140" height="30" as="geometry" />
        </mxCell>
        <mxCell id="_UAvvu1hv1Xpaj-Y4Vh0-153" value="Ciudades" style="swimlane;fontStyle=0;childLayout=stackLayout;horizontal=1;startSize=30;horizontalStack=0;resizeParent=1;resizeParentMax=0;resizeLast=0;collapsible=1;marginBottom=0;whiteSpace=wrap;html=1;labelBackgroundColor=none;fillColor=#d5e8d4;strokeColor=#82b366;rounded=1;swimlaneFillColor=none;" parent="1" vertex="1">
          <mxGeometry x="70" y="695" width="140" height="120" as="geometry" />
        </mxCell>
        <mxCell id="_UAvvu1hv1Xpaj-Y4Vh0-154" value="Id_Ciudad" style="text;strokeColor=none;fillColor=none;align=left;verticalAlign=middle;spacingLeft=4;spacingRight=4;overflow=hidden;points=[[0,0.5],[1,0.5]];portConstraint=eastwest;rotatable=0;whiteSpace=wrap;html=1;labelBackgroundColor=none;fontColor=#5C5C5C;rounded=1;fontStyle=5" parent="_UAvvu1hv1Xpaj-Y4Vh0-153" vertex="1">
          <mxGeometry y="30" width="140" height="30" as="geometry" />
        </mxCell>
        <mxCell id="_UAvvu1hv1Xpaj-Y4Vh0-155" value="Ciudad_destino" style="text;strokeColor=none;fillColor=none;align=left;verticalAlign=middle;spacingLeft=4;spacingRight=4;overflow=hidden;points=[[0,0.5],[1,0.5]];portConstraint=eastwest;rotatable=0;whiteSpace=wrap;html=1;labelBackgroundColor=none;fontColor=#5C5C5C;rounded=1;" parent="_UAvvu1hv1Xpaj-Y4Vh0-153" vertex="1">
          <mxGeometry y="60" width="140" height="30" as="geometry" />
        </mxCell>
        <mxCell id="GV22giLiz233N7UCFkE7-2" value="Ciudad_Partida" style="text;strokeColor=none;fillColor=none;align=left;verticalAlign=middle;spacingLeft=4;spacingRight=4;overflow=hidden;points=[[0,0.5],[1,0.5]];portConstraint=eastwest;rotatable=0;whiteSpace=wrap;html=1;labelBackgroundColor=none;fontColor=#5C5C5C;rounded=1;" vertex="1" parent="_UAvvu1hv1Xpaj-Y4Vh0-153">
          <mxGeometry y="90" width="140" height="30" as="geometry" />
        </mxCell>
        <mxCell id="_UAvvu1hv1Xpaj-Y4Vh0-182" value="" style="edgeStyle=entityRelationEdgeStyle;fontSize=12;html=1;endArrow=ERoneToMany;rounded=0;strokeColor=#006658;fontColor=#5C5C5C;fillColor=#21C0A5;entryX=1;entryY=0.5;entryDx=0;entryDy=0;exitX=0;exitY=0.5;exitDx=0;exitDy=0;" parent="1" source="_UAvvu1hv1Xpaj-Y4Vh0-152" target="_UAvvu1hv1Xpaj-Y4Vh0-159" edge="1">
          <mxGeometry width="100" height="100" relative="1" as="geometry">
            <mxPoint x="960" y="510" as="sourcePoint" />
            <mxPoint x="1060" y="410" as="targetPoint" />
          </mxGeometry>
        </mxCell>
        <mxCell id="_UAvvu1hv1Xpaj-Y4Vh0-183" value="" style="edgeStyle=entityRelationEdgeStyle;fontSize=12;html=1;endArrow=ERoneToMany;rounded=0;strokeColor=#006658;fontColor=#5C5C5C;fillColor=#21C0A5;exitX=0;exitY=0.5;exitDx=0;exitDy=0;entryX=1;entryY=0.5;entryDx=0;entryDy=0;" parent="1" source="_UAvvu1hv1Xpaj-Y4Vh0-33" target="_UAvvu1hv1Xpaj-Y4Vh0-11" edge="1">
          <mxGeometry width="100" height="100" relative="1" as="geometry">
            <mxPoint x="970" y="520" as="sourcePoint" />
            <mxPoint x="1070" y="420" as="targetPoint" />
          </mxGeometry>
        </mxCell>
        <mxCell id="_UAvvu1hv1Xpaj-Y4Vh0-184" value="" style="edgeStyle=entityRelationEdgeStyle;fontSize=12;html=1;endArrow=ERoneToMany;rounded=0;strokeColor=#006658;fontColor=#5C5C5C;fillColor=#21C0A5;exitX=1;exitY=0.5;exitDx=0;exitDy=0;" parent="1" source="_UAvvu1hv1Xpaj-Y4Vh0-154" target="_UAvvu1hv1Xpaj-Y4Vh0-12" edge="1">
          <mxGeometry width="100" height="100" relative="1" as="geometry">
            <mxPoint x="980" y="530" as="sourcePoint" />
            <mxPoint x="1080" y="430" as="targetPoint" />
          </mxGeometry>
        </mxCell>
        <mxCell id="_UAvvu1hv1Xpaj-Y4Vh0-185" value="" style="edgeStyle=entityRelationEdgeStyle;fontSize=12;html=1;endArrow=ERoneToMany;rounded=0;strokeColor=#006658;fontColor=#5C5C5C;fillColor=#21C0A5;exitX=1;exitY=0.5;exitDx=0;exitDy=0;" parent="1" source="_UAvvu1hv1Xpaj-Y4Vh0-33" target="_UAvvu1hv1Xpaj-Y4Vh0-17" edge="1">
          <mxGeometry width="100" height="100" relative="1" as="geometry">
            <mxPoint x="990" y="540" as="sourcePoint" />
            <mxPoint x="1090" y="440" as="targetPoint" />
            <Array as="points">
              <mxPoint x="654" y="560" />
              <mxPoint x="680" y="650" />
            </Array>
          </mxGeometry>
        </mxCell>
        <mxCell id="_UAvvu1hv1Xpaj-Y4Vh0-186" value="" style="edgeStyle=entityRelationEdgeStyle;fontSize=12;html=1;endArrow=ERoneToMany;rounded=0;strokeColor=#006658;fontColor=#5C5C5C;fillColor=#21C0A5;exitX=1;exitY=0.5;exitDx=0;exitDy=0;" parent="1" source="_UAvvu1hv1Xpaj-Y4Vh0-27" target="_UAvvu1hv1Xpaj-Y4Vh0-147" edge="1">
          <mxGeometry width="100" height="100" relative="1" as="geometry">
            <mxPoint x="1000" y="550" as="sourcePoint" />
            <mxPoint x="1100" y="450" as="targetPoint" />
          </mxGeometry>
        </mxCell>
        <mxCell id="_UAvvu1hv1Xpaj-Y4Vh0-187" value="" style="edgeStyle=entityRelationEdgeStyle;fontSize=12;html=1;endArrow=none;rounded=0;strokeColor=#006658;fontColor=#5C5C5C;fillColor=#21C0A5;exitX=1;exitY=0.5;exitDx=0;exitDy=0;entryX=0;entryY=0.5;entryDx=0;entryDy=0;endFill=0;startArrow=ERoneToMany;startFill=0;" parent="1" source="_UAvvu1hv1Xpaj-Y4Vh0-160" target="_UAvvu1hv1Xpaj-Y4Vh0-34" edge="1">
          <mxGeometry width="100" height="100" relative="1" as="geometry">
            <mxPoint x="1010" y="560" as="sourcePoint" />
            <mxPoint x="1110" y="460" as="targetPoint" />
          </mxGeometry>
        </mxCell>
        <mxCell id="_UAvvu1hv1Xpaj-Y4Vh0-190" value="" style="edgeStyle=entityRelationEdgeStyle;fontSize=12;html=1;endArrow=ERoneToMany;rounded=0;strokeColor=#006658;fontColor=#5C5C5C;fillColor=#21C0A5;exitX=0;exitY=0.5;exitDx=0;exitDy=0;entryX=1;entryY=0.25;entryDx=0;entryDy=0;" parent="1" source="_UAvvu1hv1Xpaj-Y4Vh0-4" target="_UAvvu1hv1Xpaj-Y4Vh0-25" edge="1">
          <mxGeometry width="100" height="100" relative="1" as="geometry">
            <mxPoint x="450" y="346" as="sourcePoint" />
            <mxPoint x="550" y="246" as="targetPoint" />
          </mxGeometry>
        </mxCell>
      </root>
    </mxGraphModel>
  </diagram>
</mxfile>
